<?xml version="1.0" encoding="UTF-8" standalone="no"?>
<svg
   version="1.1"
   id="Layer_1"
   x="0px"
   y="0px"
   viewBox="0 0 36 12"
   xml:space="preserve"
   sodipodi:docname="carrot.svg"
   width="36"
   height="12"
   inkscape:version="1.3 (0e150ed6c4, 2023-07-21)"
   xmlns:inkscape="http://www.inkscape.org/namespaces/inkscape"
   xmlns:sodipodi="http://sodipodi.sourceforge.net/DTD/sodipodi-0.dtd"
   xmlns="http://www.w3.org/2000/svg"
   xmlns:svg="http://www.w3.org/2000/svg"><defs
     id="defs5" /><sodipodi:namedview
     id="namedview5"
     pagecolor="#ffffff"
     bordercolor="#000000"
     borderopacity="0.25"
     inkscape:showpageshadow="2"
     inkscape:pageopacity="0.0"
     inkscape:pagecheckerboard="0"
     inkscape:deskcolor="#d1d1d1"
     inkscape:zoom="22.266667"
     inkscape:cx="21.107784"
     inkscape:cy="8.9595807"
     inkscape:window-width="1920"
     inkscape:window-height="1027"
     inkscape:window-x="-8"
     inkscape:window-y="-8"
     inkscape:window-maximized="1"
     inkscape:current-layer="Layer_1" /><style
     type="text/css"
     id="style1">.st0{fill-rule:evenodd;clip-rule:evenodd;fill:#D14B02;} .st1{fill-rule:evenodd;clip-rule:evenodd;fill:#FFFFFF;} .st2{fill-rule:evenodd;clip-rule:evenodd;fill:#FF7900;} .st3{fill-rule:evenodd;clip-rule:evenodd;fill:#75AA00;} .st4{fill-rule:evenodd;clip-rule:evenodd;fill:#498A0C;}</style><g
     id="g5"
     transform="matrix(-0.1500096,-0.1500096,0.1500096,-0.1500096,17.673288,24.45464)"><path
       class="st0"
       d="m 82.43,23.16 c -1.39,-0.74 -2.8,-1.37 -4.22,-1.9 -0.72,-0.27 -1.37,-0.48 -1.97,-0.65 -0.62,-0.18 -1.25,-0.32 -1.9,-0.44 -9.31,-1.73 -14.04,3.62 -19.77,10.07 -0.62,0.7 -1.26,1.41 -1.74,1.94 C 41.19,44.99 31.29,58.63 22.81,72.69 14.34,86.75 7.3,101.25 1.41,115.75 c -0.39,0.96 -0.45,1.09 -0.49,1.2 -0.99,2.34 -1.47,3.49 0.11,5.01 1.44,1.38 2.55,0.99 4.74,0.22 0.57,-0.2 1.26,-0.45 1.42,-0.5 12.59,-4.19 25.82,-10.29 39.89,-18.87 14.01,-8.55 28.88,-19.6 44.8,-33.7 2.12,-1.88 -0.39,0.35 1.01,-0.88 6.11,-5.38 10.14,-8.92 9.46,-17.7 -0.04,-0.49 -0.1,-1.03 -0.18,-1.61 -0.08,-0.57 -0.17,-1.13 -0.28,-1.69 -0.54,-2.78 -1.58,-5.5 -2.99,-8.08 0.16,-2.87 -6.45,-8.66 -16.47,-15.99 z"
       id="path1"
       style="stroke-width:1;stroke-dasharray:none" /><path
       class="st1"
       d="m 89.13,63.95 c 0.64,-0.57 0.24,-0.22 0,0 z"
       id="path2" /><path
       class="st2"
       d="m 74.5,50.64 c 1.04,1.04 1.04,2.74 0,3.79 -1.04,1.04 -2.74,1.04 -3.79,0 L 54.79,38.5 C 45.69,48.82 37.68,59.71 30.61,70.91 l 9.84,9.84 c 1.04,1.04 1.04,2.74 0,3.79 -1.04,1.04 -2.74,1.04 -3.79,0 l -8.93,-8.93 -0.01,0.02 c -7.85,13.03 -14.45,26.44 -20.03,39.89 6.34,-2.21 12.87,-4.95 19.6,-8.26 L 19.8,99.79 c -1.04,-1.04 -1.04,-2.74 0,-3.79 1.04,-1.04 2.74,-1.04 3.79,0 l 8.7,8.7 c 3.88,-2.04 7.82,-4.29 11.84,-6.74 C 51.4,93.52 58.91,88.39 66.69,82.5 L 50.53,66.35 c -1.04,-1.04 -1.04,-2.74 0,-3.79 1.04,-1.04 2.74,-1.04 3.79,0 L 70.95,79.2 c 5.58,-4.38 11.3,-9.15 17.17,-14.34 l 1.01,-0.9 v 0 c -0.14,0.13 -0.23,0.2 0,0 4.83,-4.25 7.99,-7.04 7.54,-13 -0.03,-0.43 -0.08,-0.85 -0.13,-1.26 -0.06,-0.43 -0.14,-0.89 -0.24,-1.4 -0.45,-2.33 -1.37,-4.64 -2.62,-6.84 -1.37,-2.4 -3.16,-4.69 -5.18,-6.73 -1.8,-1.82 -3.81,-3.46 -5.9,-4.85 -2.08,-1.38 -4.24,-2.49 -6.36,-3.29 -0.49,-0.18 -1,-0.35 -1.53,-0.5 -0.51,-0.14 -0.97,-0.25 -1.39,-0.33 -6.16,-1.15 -9.94,3.11 -14.49,8.23 l -0.47,0.52 z"
       id="path3" /><path
       class="st3"
       d="m 121.7,36.63 c -5.17,-6.32 -10.85,-9.45 -17.24,-9.42 7.8,-5.47 13.31,-14.89 14.23,-24.16 C 108.17,4.42 99.59,9.81 94.47,17.97 94.75,11.29 91.64,5.36 85.07,0 80.14,6.19 78.01,15.32 82.14,23.54 l 17.54,16.72 c 7.81,3.15 16.21,0.99 22.02,-3.63 z"
       id="path4" /><path
       class="st4"
       d="m 121.7,36.63 c -5.17,-6.32 -10.85,-9.45 -17.24,-9.42 -4.04,2.89 -8.92,4.11 -14.62,3.67 l 9.83,9.38 c 7.82,3.15 16.22,0.99 22.03,-3.63 z"
       id="path5" /></g></svg>
