<?xml version="1.0" encoding="UTF-8" standalone="no"?>
<!-- License: PD. Made by Nanda Pratama: https://dribbble.com/banknanda -->

<svg
   width="14"
   height="14"
   viewBox="0 0 17.92 17.92"
   class="icon"
   version="1.1"
   id="svg4"
   sodipodi:docname="fruit_tmt_s.svg"
   inkscape:version="1.3 (0e150ed6c4, 2023-07-21)"
   xmlns:inkscape="http://www.inkscape.org/namespaces/inkscape"
   xmlns:sodipodi="http://sodipodi.sourceforge.net/DTD/sodipodi-0.dtd"
   xmlns="http://www.w3.org/2000/svg"
   xmlns:svg="http://www.w3.org/2000/svg">
  <defs
     id="defs4" />
  <sodipodi:namedview
     id="namedview4"
     pagecolor="#ffffff"
     bordercolor="#000000"
     borderopacity="0.25"
     inkscape:showpageshadow="2"
     inkscape:pageopacity="0.0"
     inkscape:pagecheckerboard="0"
     inkscape:deskcolor="#d1d1d1"
     inkscape:zoom="16.7"
     inkscape:cx="19.790419"
     inkscape:cy="14.760479"
     inkscape:window-width="1920"
     inkscape:window-height="1027"
     inkscape:window-x="-8"
     inkscape:window-y="-8"
     inkscape:window-maximized="1"
     inkscape:current-layer="svg4" />
  <g
     id="g4"
     transform="matrix(0.02,0,0,0.02,-0.84975501,-0.6615615)">
    <path
       d="m 488.93867,242.368 c 0,0 -353.49334,-71.25333 -398.549337,219.62667 C 45.418667,752.91733 312.576,843.968 389.76,861.39733 466.90133,878.80533 813.568,926.72 886.29333,611.49867 946.58133,350.29333 713.984,192.91733 514.688,248.21333 Z"
       fill="#ff3d00"
       id="path1" />
    <path
       d="m 514.688,248.21333 -25.74933,-5.824 c 0,0 -257.77067,-51.79733 -361.06667,114.304 34.048,20.77867 89.87733,45.16267 89.87733,45.16267 38.48534,16.59733 75.47734,25.04533 109.952,25.04533 34.048,0 65.23734,-8.08533 92.37334,-23.424 8.93866,43.15734 33.6,88.55467 91.008,123.62667 l 41.70666,25.472 19.62667,-44.77867 c 16.448,-37.54666 24.64,-68.84266 26.64533,-97.00266 22.08,11.11466 46.656,18.21866 73.49334,18.21866 32.192,0 64.74666,-10.176 96.74666,-30.18666 0,0 42.00534,-24.256 68.928,-44.75734 -73.19466,-95.85066 -204.288,-138.944 -323.54133,-105.856 z"
       fill="#dd2c00"
       id="path2" />
    <path
       d="m 533.33333,490.688 c 40.896,-93.33333 23.65867,-135.70133 -16.192,-213.35467 54.528,71.04 127.296,149.35467 229.52534,85.35467 C 668.88533,342.016 682.96533,282.21867 586.368,265.25867 658.816,268.288 697.13067,290.944 746.66667,192.02133 668.672,233.06667 623.104,143.12533 521.74933,235.79733 504.64,246.42133 486.67733,219.456 472.96,234.06933 399.78667,112.448 312.832,221.14133 277.33333,128.02133 c 0,143.18934 137.42934,104.23467 170.66667,128 C 318.63467,245.12 328.59733,343.57333 234.66667,362.688 c 123.56266,53.33333 203.75466,1.344 236.20266,-87.27467 -5.07733,34.624 -48.768,147.328 62.464,215.27467 z"
       fill="#4caf50"
       id="path3" />
    <path
       d="m 469.35467,257.28 c -0.55467,4.20267 8.36266,20.05333 37.29066,20.05333 34.624,0 21.35467,-17.25866 21.35467,-17.25866 0,0 -3.17867,-99.62667 69.33333,-165.461337 C 578.92267,79.36 559.552,87.530666 559.552,87.530667 c 0,1e-6 -77.41867,79.936003 -90.19733,169.749333 z"
       fill="#4caf50"
       id="path4" />
  </g>
</svg>
